<svg xmlns="http://www.w3.org/2000/svg" width="30" height="39"><g fill="#F9BD00" fill-rule="nonzero"><path d="M29.618 7.896 15.138.086a.712.712 0 0 0-.685.004L.374 7.9A.731.731 0 0 0 0 8.54v10.203c.008 8.387 4.917 15.974 12.508 19.334l1.954.862c.183.08.39.081.574.001l2.202-.963C24.969 34.69 29.999 27.03 30 18.541v-10a.731.731 0 0 0-.382-.645Zm-1.06 10.645c-.001 7.904-4.686 15.035-11.885 18.094l-.005.002-1.917.838-1.666-.736C6.019 33.612 1.449 26.55 1.44 18.743v-9.77l13.363-7.414 13.754 7.419v9.563Z"/><path d="M9.259 18.128a.692.692 0 0 0-1.008-.083.774.774 0 0 0-.08 1.056l3.776 4.636c.253.31.694.352.995.095l8.794-7.501a.774.774 0 0 0 .104-1.055.693.693 0 0 0-1.006-.108l-8.253 7.039-3.322-4.08Z"/></g></svg>