<svg xmlns="http://www.w3.org/2000/svg" width="46" height="30"><g fill="#F9BD00" fill-rule="nonzero"><path d="M11 22c-2.206 0-4 1.794-4 4s1.794 4 4 4 4-1.794 4-4-1.794-4-4-4Zm0 6.667A2.67 2.67 0 0 1 8.333 26 2.67 2.67 0 0 1 11 23.333 2.67 2.67 0 0 1 13.667 26 2.67 2.67 0 0 1 11 28.667ZM37 22c-2.206 0-4 1.794-4 4s1.794 4 4 4 4-1.794 4-4-1.794-4-4-4Zm0 6.667A2.67 2.67 0 0 1 34.333 26 2.67 2.67 0 0 1 37 23.333 2.67 2.67 0 0 1 39.667 26 2.67 2.67 0 0 1 37 28.667Z"/><path d="M45.884 16.781 39.34 5.374A.712.712 0 0 0 38.727 5h-8c-.402 0-.727.365-.727.815v20.37c0 .45.325.815.727.815h2.91v-1.63h-2.183V6.63h6.876l6.216 10.832v7.908h-3.637V27h4.364c.402 0 .727-.364.727-.815v-8.963c0-.155-.04-.31-.116-.44Z"/><path d="M34.5 15.546v-5.091h6V9h-6.75a.739.739 0 0 0-.75.727v6.546c0 .402.335.727.75.727H45v-1.455H34.5ZM30.225 0H.775A.785.785 0 0 0 0 .794v25.412c0 .44.347.794.775.794h6.2v-1.588H1.55V1.588h27.9v23.824H14.725V27h15.5a.784.784 0 0 0 .775-.794V.794A.784.784 0 0 0 30.225 0Z"/><path d="M0 22h5v2H0zM16 22h13v2H16zM41 22h3v2h-3zM3 3h28v2H3zM10 25h2v2h-2zM36 25h2v2h-2z"/></g></svg>