<svg xmlns="http://www.w3.org/2000/svg" width="28" height="37"><g fill="none" fill-rule="nonzero"><path fill="#F9BD00" d="M1.484 10.12a3.67 3.67 0 0 0 1.13-2.65c0-2.716 2.279-4.93 5.073-4.93 1.027 0 2.001-.392 2.728-1.098 1.978-1.923 5.192-1.923 7.17 0a3.888 3.888 0 0 0 2.728 1.099c2.794 0 5.072 2.213 5.072 4.929 0 .997.397 1.944 1.131 2.65A4.826 4.826 0 0 1 28 13.607a4.826 4.826 0 0 1-1.484 3.488 3.67 3.67 0 0 0-1.13 2.65c0 2.235-1.537 4.12-3.635 4.725l2.945 10.688-4.443-2.403L17.645 37l-2.72-9.865c-.307.05-.614.08-.921.08-.307 0-.615-.03-.922-.08l-2.727 9.858-2.608-4.245-4.443 2.403L6.25 24.463c-2.098-.604-3.634-2.49-3.634-4.725 0-.998-.405-1.944-1.131-2.65a4.832 4.832 0 0 1 0-6.968Zm16.58 23.866 1.74-2.825 2.959 1.602-2.233-8.096c-.083.007-.158.007-.232.007-1.027 0-2.001.393-2.728 1.1a4.98 4.98 0 0 1-.48.407c-.09.066-.18.131-.277.197-.052.036-.112.065-.164.102-.083.043-.158.094-.24.138a2.77 2.77 0 0 1-.21.102.96.96 0 0 1-.12.05l1.986 7.216Zm-12.85-1.223 2.96-1.602 1.739 2.825 1.985-7.215c-.045-.022-.082-.044-.127-.058-.075-.037-.142-.066-.217-.11-.083-.043-.158-.087-.233-.13l-.172-.103c-.09-.058-.172-.123-.262-.189-.045-.03-.09-.058-.128-.095a4.98 4.98 0 0 1-.367-.32 3.888 3.888 0 0 0-2.727-1.1c-.06.008-.135 0-.217 0l-2.233 8.097ZM2.346 16.258a4.826 4.826 0 0 1 1.484 3.487c0 1.806 1.318 3.313 3.072 3.67l.195.029c.104.014.194.029.292.036.097.007.202.014.3.014.509 0 1.003.073 1.476.212a5.03 5.03 0 0 1 2.105 1.23c.105.102.21.19.322.277.038.029.075.05.113.08.074.058.157.109.24.16.037.022.082.05.127.073.09.05.18.094.27.138.037.015.067.03.104.051.113.051.233.095.345.131.022.007.052.022.075.03l.045.014a4.05 4.05 0 0 0 2.165 0l.06-.015c.023-.007.038-.014.06-.022.12-.036.24-.087.36-.13.03-.015.067-.03.097-.044.098-.044.187-.095.277-.146l.113-.065c.09-.051.172-.11.254-.168.03-.022.068-.044.098-.073a5.78 5.78 0 0 0 .322-.276 5.077 5.077 0 0 1 2.106-1.23 5.236 5.236 0 0 1 1.476-.212c.104 0 .202-.007.3-.015.09-.007.187-.021.291-.036l.195-.029c1.754-.357 3.072-1.864 3.072-3.67 0-1.317.525-2.555 1.484-3.487a3.67 3.67 0 0 0 1.131-2.65c0-.997-.404-1.944-1.131-2.65a4.826 4.826 0 0 1-1.484-3.488c0-2.067-1.73-3.742-3.85-3.742-1.357 0-2.63-.51-3.59-1.441a3.904 3.904 0 0 0-2.727-1.092c-.99 0-1.978.364-2.728 1.092a5.113 5.113 0 0 1-3.589 1.441c-2.127 0-3.85 1.682-3.85 3.742a4.826 4.826 0 0 1-1.484 3.488 3.663 3.663 0 0 0 .007 5.286Z"/><g fill="#F1BC02"><path d="M14 5c4.961 0 9 4.04 9 9.004C23 18.967 18.961 23 14 23s-9-4.04-9-9.004C5 9.033 9.039 5 14 5Zm0 16.796c4.297 0 7.797-3.501 7.797-7.8 0-4.298-3.5-7.8-7.797-7.8s-7.797 3.502-7.797 7.8c0 4.299 3.5 7.8 7.797 7.8Z"/><path d="m14.004 9 1.413 3.82H20l-3.709 2.36L17.705 19l-3.709-2.361L10.288 19l1.42-3.82L8 12.82h4.583L14.003 9Zm-1.296 7.091 1.296-.828 1.296.828-.492-1.335 1.296-.828h-1.6l-.492-1.335-.492 1.335h-1.6l1.295.828-.507 1.335Z"/></g></g></svg>