<svg xmlns="http://www.w3.org/2000/svg" width="32" height="28"><g fill="#F1BC02" fill-rule="nonzero"><path d="M7.5 23a2.5 2.5 0 1 0 0 5 2.5 2.5 0 0 0 0-5Zm0 3.889a1.389 1.389 0 1 1 0-2.778 1.389 1.389 0 0 1 0 2.778ZM16.5 23a2.5 2.5 0 1 0 0 5 2.5 2.5 0 0 0 0-5Zm0 3.889a1.389 1.389 0 1 1 0-2.778 1.389 1.389 0 0 1 0 2.778ZM21.896 8.734a.62.62 0 0 0-.408-.223l-16.614-.25-.46-1.533C4.092 5.703 3.214 5.01 2.22 5H.51C.23 5 0 5.25 0 5.557c0 .308.229.558.51.558h1.71c.555.013 1.044.402 1.225.975l3.241 10.674-.255.64c-.285.802-.2 1.705.23 2.426.424.708 1.139 1.145 1.914 1.17h9.927c.282 0 .51-.25.51-.557 0-.308-.228-.558-.51-.558H8.575c-.438-.012-.84-.263-1.072-.669a1.656 1.656 0 0 1-.128-1.337l.204-.502 10.744-1.226c1.18-.142 2.151-1.08 2.425-2.341l1.225-5.602a.508.508 0 0 0-.077-.474Zm-2.144 5.825c-.165.812-.797 1.411-1.556 1.477L7.579 17.234 5.206 9.375l15.644.251-1.098 4.933Z"/></g></svg>