<svg xmlns="http://www.w3.org/2000/svg" width="30" height="30"><g fill="#F9BD00" fill-rule="nonzero"><path d="m13.199 9.04 8.84-8.841a.68.68 0 0 1 .962 0l6.8 6.8a.68.68 0 0 1 0 .962l-8.84 8.84a.683.683 0 0 1-.962 0 .68.68 0 0 1 0-.963l8.36-8.359-5.84-5.838L14.16 10a.68.68 0 0 1-.961-.962ZM.199 22.04l8.84-8.841a.68.68 0 0 1 .962.962L1.64 22.52l5.84 5.838L15.84 20a.68.68 0 0 1 .961.962l-8.84 8.84a.683.683 0 0 1-.962 0l-6.8-6.8a.68.68 0 0 1 0-.962Z"/><path d="M21.176 2.176a.6.6 0 0 1 .848 0l1.8 1.8a.6.6 0 0 1-.848.849l-1.8-1.8a.6.6 0 0 1 0-.85ZM18.22 3.22a.75.75 0 0 1 1.06 0l1.5 1.5a.75.75 0 0 1-1.06 1.06l-1.5-1.5a.75.75 0 0 1 0-1.06ZM16.176 6.176a.6.6 0 0 1 .848 0l1.8 1.8a.6.6 0 0 1-.848.849l-1.8-1.8a.6.6 0 0 1 0-.85ZM6.176 17.176a.6.6 0 0 1 .848 0l1.8 1.8a.6.6 0 0 1-.848.849l-1.8-1.8a.6.6 0 0 1 0-.85ZM3.22 18.22a.75.75 0 0 1 1.06 0l1.5 1.5a.75.75 0 0 1-1.06 1.06l-1.5-1.5a.75.75 0 0 1 0-1.06ZM1.176 21.176a.6.6 0 0 1 .848 0l1.8 1.8a.6.6 0 0 1-.848.849l-1.8-1.8a.6.6 0 0 1 0-.85ZM.914 3.63 3.63.913a3.127 3.127 0 0 1 4.419 0l19.27 19.27c.074.074.13.167.158.27l2.5 8.75a.625.625 0 0 1-.774.772l-8.75-2.5a.618.618 0 0 1-.27-.159L.914 8.048a3.127 3.127 0 0 1 0-4.419Zm.884 3.534L20.952 26.32l7.513 2.146-2.147-7.513L7.164 1.798a1.876 1.876 0 0 0-2.651 0L1.798 4.513a1.876 1.876 0 0 0 0 2.651Z"/><path d="M.898 3.563 3.563.897a3.07 3.07 0 0 1 4.339 0l18.918 18.92a.614.614 0 0 1-.867.867L7.034 1.765a1.842 1.842 0 0 0-2.603 0L1.765 4.431a1.842 1.842 0 0 0 0 2.603l18.92 18.92a.614.614 0 0 1-.869.867L.898 7.9a3.07 3.07 0 0 1 0-4.338Z"/><path d="m19.195 25.862 6.667-6.667a.667.667 0 0 1 .943.943l-6.667 6.667a.67.67 0 0 1-.943 0 .667.667 0 0 1 0-.943ZM4.176 5.176a.6.6 0 0 1 .848 0l16.8 16.8a.6.6 0 0 1-.848.849L4.176 6.024a.6.6 0 0 1 0-.848Z"/></g></svg>