<svg xmlns="http://www.w3.org/2000/svg" width="28" height="28"><path fill="#F1BC02" fill-rule="nonzero" d="M14 0C6.28 0 0 6.28 0 14c0 3.381 1.205 6.486 3.208 8.908.005.007.005.016.011.022a13.996 13.996 0 0 0 5.286 3.945l.07.03c.164.07.33.133.496.196.065.024.13.05.197.073a13.857 13.857 0 0 0 1.442.431 12.676 12.676 0 0 0 .745.158c.107.02.213.04.32.057.147.024.295.043.443.062.096.012.191.026.287.036.168.018.338.03.508.042.078.006.157.014.236.019a13.316 13.316 0 0 0 1.503 0c.08-.004.158-.012.236-.018.17-.012.34-.024.508-.042.096-.01.191-.024.287-.036.148-.02.296-.038.443-.062.107-.017.213-.038.32-.057.132-.024.264-.05.395-.077a15.18 15.18 0 0 0 1.36-.365c.145-.047.29-.095.432-.147.066-.023.132-.049.197-.073.167-.063.332-.127.496-.196l.07-.03a14 14 0 0 0 5.286-3.945c.005-.006.006-.016.011-.022A13.943 13.943 0 0 0 28 14c0-7.72-6.28-14-14-14Zm5.673 25.77-.02.01c-.167.08-.336.155-.507.23l-.116.049a12.66 12.66 0 0 1-1.306.464 11.788 11.788 0 0 1-.679.182c-.11.026-.219.052-.33.076-.12.025-.242.047-.363.07-.099.017-.197.036-.296.052-.137.022-.275.04-.413.056-.087.012-.174.025-.262.034-.157.017-.316.027-.474.039-.07.004-.14.012-.212.016a13.24 13.24 0 0 1-1.39 0c-.07-.004-.14-.011-.211-.016-.159-.011-.317-.022-.474-.04-.089-.008-.175-.021-.263-.033-.137-.017-.275-.034-.412-.056-.1-.016-.198-.035-.296-.053a13.188 13.188 0 0 1-.364-.07c-.11-.023-.22-.05-.33-.075-.104-.026-.209-.05-.312-.078a13.716 13.716 0 0 1-1.03-.32l-.19-.07a12.66 12.66 0 0 1-.453-.178l-.115-.05a13.056 13.056 0 0 1-.528-.24 13.13 13.13 0 0 1-4.233-3.263 10.3 10.3 0 0 1 6.74-7.065c.065.04.133.075.2.113.04.021.078.045.117.066.14.074.28.143.425.205.11.048.225.09.338.131l.068.025c.632.224 1.31.352 2.018.352.708 0 1.386-.128 2.018-.352l.067-.025c.114-.042.228-.083.339-.131a5.81 5.81 0 0 0 .424-.205c.04-.022.078-.045.118-.066.066-.038.135-.073.2-.113a10.303 10.303 0 0 1 6.74 7.064 13.143 13.143 0 0 1-4.233 3.264ZM8.867 10.266A5.14 5.14 0 0 1 14 5.133a5.14 5.14 0 0 1 5.133 5.134 5.13 5.13 0 0 1-2.912 4.62l-.07.034a5.25 5.25 0 0 1-4.302 0c-.024-.01-.047-.022-.07-.033a5.13 5.13 0 0 1-2.912-4.62Zm15.74 11.35a11.244 11.244 0 0 0-6.555-6.847 6.047 6.047 0 0 0 2.015-4.503A6.074 6.074 0 0 0 14 4.2a6.074 6.074 0 0 0-6.067 6.067c0 1.787.782 3.391 2.016 4.503a11.245 11.245 0 0 0-6.555 6.847A12.99 12.99 0 0 1 .934 14C.933 6.795 6.794.933 14 .933 21.205.933 27.067 6.795 27.067 14c0 2.841-.915 5.471-2.46 7.617Z"/></svg>